<?xml version="1.0" encoding="UTF-8" standalone="no"?>
<!-- Created with Inkscape (http://www.inkscape.org/) -->

<svg
   width="512"
   height="512"
   viewBox="0 0 512 512"
   version="1.1"
   id="svg5"
   inkscape:version="1.1.1 (3bf5ae0d25, 2021-09-20)"
   sodipodi:docname="Logo.svg"
   xmlns:inkscape="http://www.inkscape.org/namespaces/inkscape"
   xmlns:sodipodi="http://sodipodi.sourceforge.net/DTD/sodipodi-0.dtd"
   xmlns="http://www.w3.org/2000/svg"
   xmlns:svg="http://www.w3.org/2000/svg">
  <sodipodi:namedview
     id="namedview7"
     pagecolor="#505050"
     bordercolor="#ffffff"
     borderopacity="1"
     inkscape:pageshadow="0"
     inkscape:pageopacity="0"
     inkscape:pagecheckerboard="1"
     inkscape:document-units="px"
     showgrid="false"
     inkscape:zoom="1.640625"
     inkscape:cx="256"
     inkscape:cy="264.22857"
     inkscape:window-width="1920"
     inkscape:window-height="1043"
     inkscape:window-x="0"
     inkscape:window-y="0"
     inkscape:window-maximized="1"
     inkscape:current-layer="layer1" />
  <defs
     id="defs2" />
  <g
     inkscape:label="Ebene 1"
     inkscape:groupmode="layer"
     id="layer1">
    <g
       id="g165">
      <path
         style="fill:#fefefe;stroke-width:1.18519"
         d="M -36,256 V 0 H 249.03705 534.0741 V 256 512 H 249.03705 -36 Z m 330.03115,162.40601 c 1.56548,-1.29924 1.82298,-6.68275 1.83689,-38.40298 0.009,-20.29056 0.31929,-38.02123 0.68976,-39.4015 0.64531,-2.40433 1.5517,-2.53613 21.61344,-3.14279 15.82794,-0.47864 23.19682,-1.23222 30.1849,-3.08686 24.91296,-6.61196 42.00453,-22.4501 48.76278,-45.18669 1.06566,-3.58519 2.24106,-11.58519 2.612,-17.77778 1.9503,-32.55853 -15.53631,-56.48526 -47.35022,-64.78879 -5.69104,-1.48538 -15.3112,-2.0364 -42.74877,-2.44851 l -35.40512,-0.53178 -5.48377,-3.93005 c -3.01607,-2.16152 -16.79938,-9.62047 -30.62959,-16.57543 -20.61923,-10.36905 -26.30308,-13.7843 -31.57455,-18.97221 -10.49644,-10.33007 -13.03942,-23.70894 -6.82268,-35.89477 9.41661,-18.45807 39.56723,-21.18522 67.33908,-6.09089 10.9773,5.96629 12.89584,5.96882 14.67836,0.0193 2.13679,-7.13199 0.50043,-16.87543 -3.47357,-20.68276 -7.49547,-7.181122 -28.16223,-12.906216 -46.40823,-12.855984 -28.7816,0.07924 -49.36161,11.066379 -59.32732,31.673354 -3.65573,7.55927 -4.03575,9.38867 -4.45814,21.46113 -0.56264,16.08151 1.09453,22.7137 8.39992,33.61737 8.0168,11.96546 17.12537,18.48718 45.39119,32.49992 35.29783,17.49886 42.38304,24.5548 42.27322,42.09857 -0.13767,21.9899 -16.75024,35.62373 -43.40688,35.62373 -11.09728,0 -24.62451,-3.87399 -39.24236,-11.2384 -7.17037,-3.61241 -13.98357,-6.56156 -15.14044,-6.5537 -3.06462,0.0209 -4.68683,5.44425 -4.16589,13.92748 0.56004,9.12017 2.88404,12.52849 11.64896,17.08415 26.20622,13.62098 61.96406,14.71339 86.95671,2.65653 3.23676,-1.56145 6.05188,-2.83902 6.25581,-2.83902 0.20393,0 0.37078,26.29806 0.37078,58.44014 0,61.53953 -0.006,61.46674 5.33333,62.87311 4.20688,1.10806 19.41336,-0.0161 21.2904,-1.57391 z m 3.0059,-147.45444 v -43.39601 l 16.88889,0.0436 c 9.28889,0.0239 20.40622,0.72484 24.7052,1.5575 20.11853,3.89677 30.88972,17.80921 30.85613,39.85484 -0.0307,20.18749 -9.41659,35.19465 -26.05366,41.65759 -5.6538,2.1963 -9.77482,2.68366 -26.54471,3.13924 l -19.85185,0.53931 v -43.39603 z"
         id="path171" />
      <path
         style="fill:#3ab503;stroke-width:1.18519"
         d="m 272.74075,419.97992 c -5.46845,-1.44033 -5.33333,1.23498 -5.33333,-105.59863 0,-110.82015 -0.28981,-106.27869 6.9742,-109.28754 5.44729,-2.25635 68.18001,-1.02573 77.99908,1.5301 31.79685,8.27644 49.30055,32.22462 47.35022,64.78356 -0.37094,6.19259 -1.54634,14.19259 -2.612,17.77778 -6.75825,22.73659 -23.84982,38.57473 -48.76278,45.18669 -6.98808,1.85464 -14.35696,2.60822 -30.1849,3.08686 -20.06174,0.60666 -20.96813,0.73846 -21.61344,3.14279 -0.37047,1.38027 -0.68085,19.11094 -0.68976,39.4015 -0.0139,31.72023 -0.27141,37.10374 -1.83689,38.40298 -1.87704,1.55781 -17.08352,2.68197 -21.2904,1.57391 z m 70.69286,-109.31087 c 16.63707,-6.46293 26.02291,-21.47009 26.05366,-41.65759 0.0335,-22.04563 -10.7376,-35.95807 -30.85613,-39.85484 -4.29898,-0.83266 -15.41631,-1.53354 -24.7052,-1.5575 l -16.88889,-0.0436 v 43.39601 43.39603 l 19.85185,-0.5393 c 16.76989,-0.45559 20.89091,-0.94295 26.54471,-3.13925 z"
         id="path169" />
      <path
         style="fill:#2a7b31;stroke-width:1.18519"
         d="m 208.14816,309.26095 c -16.85864,-2.01915 -38.30227,-10.43539 -43.15758,-16.93854 -1.5915,-2.13164 -2.50937,-5.57355 -2.81542,-10.5574 -0.52094,-8.48323 1.10127,-13.90662 4.16589,-13.92748 1.15687,-0.008 7.97007,2.94129 15.14044,6.5537 14.61785,7.36441 28.14508,11.2384 39.24236,11.2384 26.65664,0 43.26921,-13.63383 43.40688,-35.62373 0.10986,-17.54377 -6.97539,-24.59971 -42.27322,-42.09857 -28.26582,-14.01274 -37.37439,-20.53446 -45.39119,-32.49992 -7.30539,-10.90367 -8.96256,-17.53586 -8.39992,-33.61737 0.42239,-12.07246 0.80241,-13.90186 4.45814,-21.46113 9.96571,-20.606975 30.54572,-31.594119 59.32732,-31.673354 18.246,-0.05023 38.91276,5.674862 46.40823,12.855984 3.974,3.80733 5.61036,13.55077 3.47357,20.68276 -1.78252,5.9495 -3.70106,5.94697 -14.67836,-0.0193 -22.26808,-12.10296 -47.51208,-13.02056 -60.63444,-2.20401 -8.7408,7.2049 -12.17526,20.20627 -8.3667,31.67274 3.65548,11.00562 11.19621,16.98931 38.88137,30.853 13.17435,6.59723 27.27474,14.22197 31.33417,16.94388 6.92605,4.64402 7.22618,5.03168 4.8712,6.29203 -5.47239,2.92874 -5.64698,4.45738 -5.69148,49.83233 l -0.042,42.82422 -6.81167,3.22517 c -14.3238,6.782 -34.77342,9.76346 -52.44759,7.64661 z"
         id="path167" />
    </g>
  </g>
</svg>
